<?xml version="1.0" encoding="UTF-8" standalone="no"?>
<!DOCTYPE svg PUBLIC "-//W3C//DTD SVG 1.1//EN" "http://www.w3.org/Graphics/SVG/1.1/DTD/svg11.dtd">
<svg width="100%" height="100%" viewBox="0 0 292 225" version="1.1" xmlns="http://www.w3.org/2000/svg" xmlns:xlink="http://www.w3.org/1999/xlink" xml:space="preserve" xmlns:serif="http://www.serif.com/" style="fill-rule:evenodd;clip-rule:evenodd;stroke-linejoin:round;stroke-miterlimit:2;">
    <g id="Artboard1" transform="matrix(0.485221,0,0,0.375,-291.133,-562.5)">
        <rect x="600" y="1500" width="600" height="600" style="fill:none;"/>
        <g transform="matrix(1.76503,-5.59371e-16,4.32307e-16,2.28381,-679.824,-2310.85)">
            <g transform="matrix(1,0,0,1,-309.858,-474.168)">
                <path d="M1039.29,2306.25C1039.29,2290.46 1036.61,2257.54 1064,2218.36C1101.02,2165.42 1160.84,2150.45 1182.1,2148.45C1186.39,2148.05 1187.65,2148.71 1187.7,2149.86C1187.73,2150.52 1186.5,2151.96 1182.25,2152.76C1165.53,2155.89 1135.28,2161.58 1106.25,2193.75C1078.8,2224.17 1080.16,2266.72 1080.16,2275.25C1093.62,2254.63 1117.83,2250 1125,2250C1166.39,2250 1200,2283.61 1200,2325C1200,2366.39 1166.39,2400 1125,2400C1083.61,2400 1039.29,2368.67 1039.29,2306.25Z"/>
            </g>
            <g transform="matrix(1,0,0,1,-139.217,-474.168)">
                <path d="M1039.29,2306.25C1039.29,2290.46 1036.61,2257.54 1064,2218.36C1101.02,2165.42 1160.84,2150.45 1182.1,2148.45C1186.39,2148.05 1187.65,2148.71 1187.7,2149.86C1187.73,2150.52 1186.5,2151.96 1182.25,2152.76C1165.53,2155.89 1135.28,2161.58 1106.25,2193.75C1078.8,2224.17 1080.16,2266.72 1080.16,2275.25C1093.62,2254.63 1117.83,2250 1125,2250C1166.39,2250 1200,2283.61 1200,2325C1200,2366.39 1166.39,2400 1125,2400C1083.61,2400 1039.29,2368.67 1039.29,2306.25Z"/>
            </g>
        </g>
    </g>
</svg>
